<svg width="83" height="75" viewBox="0 0 83 75" fill="none" xmlns="http://www.w3.org/2000/svg">
<path d="M14.331 50.2618C12.6922 50.2595 11.1211 49.6074 9.96229 48.4485C8.80345 47.2897 8.15137 45.7187 8.14899 44.0798V3.12684C8.14899 2.94484 8.15799 2.76684 8.17399 2.58984C6.63402 2.7255 5.20061 3.43266 4.15588 4.57215C3.11114 5.71164 2.53077 7.20091 2.52899 8.74684V49.6988C2.53111 51.3378 3.1831 52.909 4.342 54.0678C5.50089 55.2267 7.07207 55.8787 8.71099 55.8808H48.543V50.2608L14.331 50.2618Z" fill="#D4E1F4"/>
<path d="M66.315 8.80488V31.2849L65.439 30.8189C65.247 30.7166 65.0326 30.6637 64.8151 30.6649C64.5976 30.6661 64.3838 30.7214 64.193 30.8259L63.693 31.0999V17.8609H2.623V49.7609C2.62564 51.3985 3.27722 52.9683 4.435 54.1265C5.59278 55.2846 7.16239 55.9367 8.8 55.9399H48.172C48.328 56.8253 48.5346 57.7011 48.791 58.5629H8.8C6.46723 58.5592 4.23107 57.6308 2.58155 55.9813C0.932031 54.3318 0.00370239 52.0956 0 49.7629L0 8.80488C0.00370239 6.47211 0.932031 4.23595 2.58155 2.58643C4.23107 0.936914 6.46723 0.00858521 8.8 0.00488281H57.511C59.8444 0.0077912 62.0814 0.935738 63.7317 2.58531C65.3821 4.23489 66.311 6.4715 66.315 8.80488ZM63.693 15.2379V8.80488C63.6914 7.16553 63.0397 5.59372 61.8808 4.43424C60.7218 3.27476 59.1504 2.62227 57.511 2.61988H8.8C7.16127 2.6228 5.5906 3.27562 4.43259 4.43513C3.27458 5.59464 2.62379 7.16615 2.623 8.80488V15.2379H63.693Z" fill="#0635C9"/>
<path d="M61.535 57.6448C61.7575 57.9047 62.0727 58.0674 62.4135 58.0982C62.7542 58.1291 63.0935 58.0256 63.359 57.8098L73.249 49.7638C73.5125 49.5422 73.6783 49.2259 73.7107 48.8832C73.7431 48.5404 73.6394 48.1987 73.4221 47.9316C73.2048 47.6646 72.8913 47.4937 72.5491 47.4558C72.2069 47.4178 71.8635 47.5159 71.593 47.7288L62.698 54.9678L59.283 50.9678C59.0576 50.7026 58.736 50.5378 58.3891 50.5097C58.0422 50.4815 57.6983 50.5924 57.433 50.8178C57.1678 51.0432 57.003 51.3648 56.9749 51.7118C56.9467 52.0587 57.0576 52.4026 57.283 52.6678L61.535 57.6448Z" fill="#AC51D6"/>
<path d="M48.79 58.562C49.7775 61.88 51.4766 64.9427 53.769 67.5368C56.0613 70.1309 58.8917 72.1939 62.063 73.5821L64.244 74.532C64.4086 74.6041 64.5864 74.6412 64.766 74.641C64.9451 74.6409 65.1223 74.6045 65.287 74.534L67.74 73.474C72.0483 71.664 75.7263 68.6222 78.3127 64.7302C80.8992 60.8381 82.2789 56.2691 82.279 51.596V40.5801C82.2793 40.3425 82.2149 40.1093 82.0929 39.9055C81.9708 39.7017 81.7956 39.5349 81.586 39.4231L66.315 31.2851L65.439 30.8191C65.2471 30.7168 65.0326 30.6638 64.8151 30.6651C64.5976 30.6663 64.3838 30.7216 64.193 30.8261L63.693 31.1L48.493 39.4311C48.2868 39.5442 48.1148 39.7105 47.9948 39.9128C47.8749 40.1151 47.8114 40.3459 47.811 40.581V51.8211C47.8117 54.1035 48.1418 56.3739 48.791 58.562H48.79ZM50.433 41.3621L64.833 33.4721L79.658 41.372V51.601C79.6572 55.7597 78.4284 59.8254 76.1259 63.2884C73.8233 66.7514 70.5495 69.4574 66.715 71.0671C66.7121 71.0662 66.709 71.0662 66.706 71.0671L64.769 71.903L63.115 71.181C59.3477 69.537 56.1415 66.83 53.8892 63.3916C51.6369 59.9531 50.4361 55.9325 50.434 51.822L50.433 41.3621Z" fill="#AC51D6"/>
<path d="M29.368 12.6899H29.381C30.3532 12.6913 31.2861 12.3066 31.9745 11.6202C32.663 10.9338 33.0505 10.002 33.052 9.02989C33.0535 8.05774 32.6687 7.12483 31.9823 6.43638C31.2959 5.74793 30.3641 5.36035 29.392 5.35889H29.381C28.4089 5.35717 27.4758 5.7417 26.7872 6.4279C26.0986 7.11409 25.7107 8.04574 25.709 9.01789C25.7073 9.99004 26.0918 10.9231 26.778 11.6117C27.4642 12.3003 28.3959 12.6882 29.368 12.6899ZM28.645 8.28989C28.8412 8.09686 29.1057 7.98905 29.381 7.98989C29.6576 7.98989 29.9229 8.09978 30.1185 8.29538C30.3141 8.49098 30.424 8.75627 30.424 9.03289C30.424 9.30951 30.3141 9.5748 30.1185 9.7704C29.9229 9.966 29.6576 10.0759 29.381 10.0759C29.1748 10.0753 28.9734 10.0136 28.8022 9.89857C28.6311 9.78354 28.4979 9.62037 28.4194 9.42966C28.341 9.23896 28.3208 9.02928 28.3615 8.82712C28.4022 8.62497 28.5019 8.43941 28.648 8.29389L28.645 8.28989Z" fill="#1AE5BE"/>
<path d="M18.791 12.6577H18.804C19.2854 12.6587 19.7624 12.565 20.2075 12.3817C20.6527 12.1984 21.0574 11.9293 21.3986 11.5896C21.7398 11.2499 22.0107 10.8464 22.1959 10.402C22.3811 9.95762 22.477 9.48111 22.478 8.99969C22.4791 8.51826 22.3853 8.04134 22.202 7.59616C22.0188 7.15098 21.7496 6.74625 21.4099 6.40509C21.0702 6.06393 20.6667 5.79301 20.2223 5.60781C19.7779 5.4226 19.3014 5.32674 18.82 5.32569H18.807C18.3256 5.3249 17.8487 5.41894 17.4036 5.60245C16.9586 5.78595 16.554 6.05533 16.213 6.39519C15.872 6.73505 15.6013 7.13875 15.4164 7.58323C15.2314 8.0277 15.1358 8.50426 15.135 8.98569C15.1342 9.46711 15.2283 9.94398 15.4118 10.3891C15.5953 10.8341 15.8647 11.2387 16.2045 11.5797C16.5444 11.9207 16.9481 12.1914 17.3926 12.3763C17.837 12.5613 18.3136 12.6569 18.795 12.6577H18.791ZM18.068 8.25169C18.2636 8.05834 18.528 7.95046 18.803 7.95169C19.0443 7.95331 19.2776 8.03856 19.4632 8.19293C19.6487 8.3473 19.7749 8.56122 19.8204 8.79824C19.8658 9.03526 19.8277 9.2807 19.7124 9.49274C19.5972 9.70478 19.4119 9.87029 19.1883 9.96107C18.9647 10.0518 18.7165 10.0623 18.4861 9.99056C18.2557 9.91885 18.0572 9.76945 17.9246 9.56782C17.792 9.36619 17.7334 9.12481 17.7588 8.88481C17.7842 8.64482 17.8921 8.42106 18.064 8.25169H18.068Z" fill="#1AE5BE"/>
<path d="M8.21902 12.6249H8.23001C9.20203 12.6264 10.1348 12.2417 10.8232 11.5554C11.5115 10.8691 11.8991 9.93745 11.9005 8.96543C11.902 7.99341 11.5172 7.06062 10.831 6.37227C10.1447 5.68392 9.21303 5.29638 8.24101 5.29493H8.23001C7.25799 5.29347 6.32521 5.6782 5.63686 6.36449C4.9485 7.05078 4.56097 7.98241 4.55951 8.95443C4.55805 9.92644 4.94279 10.8592 5.62908 11.5476C6.31537 12.2359 7.247 12.6235 8.21902 12.6249ZM7.49601 8.22493C7.59247 8.12891 7.707 8.05295 7.83299 8.00146C7.95897 7.94997 8.09391 7.92396 8.23001 7.92493C8.50091 7.93332 8.75791 8.04683 8.94657 8.24142C9.13522 8.43601 9.24072 8.6964 9.24072 8.96743C9.24072 9.23846 9.13522 9.49884 8.94657 9.69343C8.75791 9.88802 8.50091 10.0015 8.23001 10.0099C7.95417 10.0081 7.69027 9.89713 7.49596 9.70133C7.30166 9.50552 7.19274 9.24078 7.19301 8.96493C7.19046 8.82694 7.2159 8.68987 7.26781 8.56199C7.31971 8.43412 7.397 8.31809 7.49501 8.22093L7.49601 8.22493Z" fill="#1AE5BE"/>
</svg>
