<svg width="89" height="76" viewBox="0 0 89 76" fill="none" xmlns="http://www.w3.org/2000/svg">
<path d="M45.481 54.4119C45.4822 53.6034 45.5276 52.7955 45.617 51.9919H14.736C13.036 51.9901 11.406 51.314 10.2038 50.1119C9.00152 48.9099 8.32516 47.28 8.32304 45.5799V2.54395C6.73061 2.69091 5.25035 3.42691 4.17204 4.60788C3.09373 5.78885 2.49499 7.32975 2.49304 8.92895V51.4099C2.49516 53.1101 3.17149 54.7401 4.3737 55.9423C5.57592 57.1445 7.20586 57.8208 8.90604 57.8229H45.75C45.5712 56.6947 45.4812 55.5542 45.481 54.4119Z" fill="#D4E1F4"/>
<path d="M68.361 9.077V32.688C67.929 32.6607 67.4923 32.6473 67.051 32.648C66.582 32.648 66.119 32.664 65.657 32.694V18.411H2.7V51.292C2.70159 52.9823 3.37392 54.603 4.56936 55.798C5.76481 56.9931 7.38565 57.6649 9.076 57.666H45.69C45.802 58.3824 45.9502 59.0926 46.134 59.794C46.185 59.987 46.239 60.18 46.295 60.369H9.076C6.66953 60.3664 4.3624 59.4091 2.66087 57.7074C0.959334 56.0057 0.00238223 53.6985 0 51.292L0 9.077C0.00238223 6.67053 0.959334 4.3633 2.66087 2.66158C4.3624 0.959853 6.66953 0.00264736 9.076 0H59.285C61.6914 0.00291152 63.9984 0.960202 65.6998 2.66187C67.4013 4.36353 68.3584 6.67062 68.361 9.077ZM65.661 15.708V9.077C65.6589 7.38691 64.9864 5.76668 63.791 4.57189C62.5956 3.37709 60.9751 2.70532 59.285 2.704H9.076C7.38574 2.70479 5.7649 3.37639 4.56942 4.5713C3.37395 5.76621 2.70159 7.38674 2.7 9.077V15.708H65.661Z" fill="#0635C9"/>
<path d="M68.361 32.6899C67.929 32.6626 67.4923 32.6493 67.051 32.6499C66.582 32.6499 66.119 32.6659 65.657 32.6959C62.4729 32.907 59.3747 33.819 56.584 35.3667C53.7933 36.9143 51.379 39.0594 49.5137 41.6485C47.6483 44.2377 46.3781 47.207 45.7936 50.3441C45.2092 53.4812 45.3251 56.7088 46.133 59.7959C46.184 59.9889 46.238 60.1819 46.294 60.3709C47.409 64.1704 49.5456 67.5908 52.4709 70.2595C55.3961 72.9282 58.9978 74.7427 62.8833 75.5052C66.7689 76.2677 70.7892 75.9491 74.5061 74.5839C78.223 73.2187 81.4938 70.8594 83.9621 67.7632C86.4304 64.667 88.0013 60.9526 88.5038 57.025C89.0063 53.0973 88.4211 49.1071 86.8118 45.4892C85.2025 41.8713 82.631 38.7646 79.3775 36.5077C76.124 34.2507 72.3134 32.9301 68.361 32.6899ZM67.051 73.2029C62.8727 73.203 58.8118 71.8204 55.5015 69.2707C52.1913 66.7211 49.8177 63.1478 48.751 59.1079C48.72 58.9879 48.689 58.8689 48.66 58.7459C47.9867 55.9646 47.9524 53.0668 48.5598 50.2703C49.1671 47.4738 50.4003 44.8513 52.1667 42.5999C53.933 40.3484 56.1866 38.5264 58.7581 37.2709C61.3297 36.0154 64.1523 35.359 67.014 35.3509H67.056C69.5413 35.3509 72.0022 35.8404 74.2983 36.7915C76.5944 37.7426 78.6807 39.1366 80.438 40.8939C82.1954 42.6513 83.5894 44.7376 84.5404 47.0336C85.4915 49.3297 85.981 51.7907 85.981 54.2759C85.981 56.7612 85.4915 59.2221 84.5404 61.5182C83.5894 63.8143 82.1954 65.9006 80.438 67.6579C78.6807 69.4153 76.5944 70.8093 74.2983 71.7603C72.0022 72.7114 69.5413 73.2009 67.056 73.2009L67.051 73.2029Z" fill="#AC51D6"/>
<path d="M67.9729 45.114C67.7229 44.881 67.3938 44.7515 67.052 44.7515C66.7101 44.7515 66.381 44.881 66.131 45.114L59.372 51.4051C59.2361 51.5244 59.1255 51.6698 59.0469 51.8326C58.9682 51.9955 58.923 52.1725 58.9139 52.3531C58.9049 52.5337 58.9321 52.7143 58.9941 52.8842C59.0561 53.0541 59.1515 53.2098 59.2748 53.3422C59.3981 53.4745 59.5466 53.5808 59.7117 53.6548C59.8767 53.7287 60.0549 53.7687 60.2357 53.7725C60.4165 53.7763 60.5963 53.7438 60.7643 53.6769C60.9324 53.61 61.0852 53.5101 61.2139 53.3831L65.7 49.208V62.4471C65.69 62.6305 65.7175 62.8141 65.7808 62.9866C65.8441 63.159 65.942 63.3168 66.0683 63.4502C66.1947 63.5836 66.3469 63.6899 66.5156 63.7625C66.6844 63.8351 66.8662 63.8726 67.0499 63.8726C67.2337 63.8726 67.4155 63.8351 67.5843 63.7625C67.7531 63.6899 67.9053 63.5836 68.0316 63.4502C68.1579 63.3168 68.2558 63.159 68.3191 62.9866C68.3824 62.8141 68.4099 62.6305 68.4 62.4471V49.208L72.8859 53.3831C73.0147 53.5101 73.1676 53.61 73.3356 53.6769C73.5036 53.7438 73.6833 53.7763 73.8642 53.7725C74.045 53.7687 74.2232 53.7287 74.3883 53.6548C74.5533 53.5808 74.7019 53.4745 74.8251 53.3422C74.9484 53.2098 75.0438 53.0541 75.1058 52.8842C75.1678 52.7143 75.1951 52.5337 75.186 52.3531C75.1769 52.1725 75.1317 51.9955 75.0531 51.8326C74.9744 51.6698 74.8638 51.5244 74.728 51.4051L67.9729 45.114Z" fill="#AD55D6"/>
<path d="M30.2719 13.08H30.2829C31.2823 13.0789 32.2406 12.6821 32.9482 11.9764C33.6559 11.2706 34.0552 10.3134 34.0589 9.31395V9.30095C34.0584 8.3012 33.6618 7.34237 32.956 6.63432C32.2502 5.92627 31.2927 5.52666 30.2929 5.52295H30.2819C29.2799 5.52149 28.3184 5.91813 27.6088 6.62561C26.8993 7.3331 26.4999 8.29346 26.4984 9.29545C26.497 10.2974 26.8936 11.259 27.6011 11.9685C28.3086 12.6781 29.2689 13.0775 30.2709 13.079L30.2719 13.08ZM29.5249 8.54395C29.6245 8.44425 29.7428 8.36525 29.8731 8.31153C30.0034 8.25781 30.143 8.23042 30.2839 8.23095C30.5632 8.23948 30.8282 8.35642 31.0228 8.557C31.2173 8.75757 31.3261 9.02602 31.3261 9.30545C31.3261 9.58489 31.2173 9.85334 31.0228 10.0539C30.8282 10.2545 30.5632 10.3714 30.2839 10.38C30.071 10.3804 29.8628 10.3175 29.6857 10.1993C29.5086 10.0812 29.3706 9.91303 29.2892 9.71627C29.2079 9.51951 29.1869 9.30301 29.2288 9.09428C29.2708 8.88554 29.3738 8.69399 29.5249 8.54395Z" fill="#1AE5BE"/>
<path d="M19.397 5.49023H19.383C18.6367 5.49041 17.9072 5.71158 17.2865 6.12585C16.6658 6.54012 16.1817 7.12892 15.8953 7.818C15.6088 8.50708 15.5328 9.26556 15.6769 9.99776C15.821 10.73 16.1788 11.4031 16.705 11.9322C17.0532 12.2855 17.4683 12.566 17.926 12.7572C18.3837 12.9485 18.8749 13.0467 19.371 13.0462H19.385C19.8811 13.047 20.3725 12.9501 20.8312 12.7609C21.2899 12.5718 21.7068 12.2942 22.0582 11.9439C22.4095 11.5937 22.6885 11.1776 22.8791 10.7196C23.0697 10.2615 23.1682 9.77036 23.169 9.27423C23.1697 8.7781 23.0728 8.28667 22.8837 7.828C22.6945 7.36933 22.4169 6.9524 22.0666 6.60102C21.7164 6.24965 21.3004 5.9707 20.8423 5.78011C20.3842 5.58952 19.8931 5.49102 19.397 5.49023ZM19.383 10.3432C19.1037 10.3347 18.8387 10.2178 18.6441 10.0172C18.4496 9.81662 18.3407 9.54816 18.3407 9.26873C18.3407 8.9893 18.4496 8.72085 18.6441 8.52028C18.8387 8.3197 19.1037 8.20275 19.383 8.19423C19.6623 8.20275 19.9273 8.3197 20.1218 8.52028C20.3164 8.72085 20.4252 8.9893 20.4252 9.26873C20.4252 9.54816 20.3164 9.81662 20.1218 10.0172C19.9273 10.2178 19.6623 10.3347 19.383 10.3432Z" fill="#1AE5BE"/>
<path d="M12.263 9.24604C12.2651 8.24394 11.8693 7.28199 11.1626 6.57153C10.4559 5.86107 9.49605 5.46021 8.49396 5.45704H8.48395C7.48183 5.45558 6.52018 5.85227 5.81054 6.55985C5.1009 7.26742 4.70141 8.22792 4.69996 9.23004C4.6985 10.2322 5.09519 11.1938 5.80276 11.9035C6.51034 12.6131 7.47084 13.0126 8.47296 13.014H8.48395C9.48382 13.0125 10.4424 12.6153 11.1505 11.9093C11.8585 11.2034 12.2585 10.2459 12.263 9.24604ZM8.48395 10.314C8.20465 10.3055 7.93965 10.1886 7.7451 9.988C7.55054 9.78742 7.44174 9.51897 7.44174 9.23954C7.44174 8.96011 7.55054 8.69166 7.7451 8.49108C7.93965 8.2905 8.20465 8.17356 8.48395 8.16504C8.76325 8.17356 9.02826 8.2905 9.22281 8.49108C9.41737 8.69166 9.52617 8.96011 9.52617 9.23954C9.52617 9.51897 9.41737 9.78742 9.22281 9.988C9.02826 10.1886 8.76325 10.3055 8.48395 10.314Z" fill="#1AE5BE"/>
</svg>
