<svg width="1730" height="821" viewBox="0 0 1730 821" fill="none" xmlns="http://www.w3.org/2000/svg">
<path d="M81.5 64.5V763.5" stroke="white" stroke-width="5"/>
<path d="M1682 763.5L84 764" stroke="white" stroke-width="5"/>
<path d="M79.5 64.5L44.5 92.5" stroke="white" stroke-width="5"/>
<path d="M79.5 61.5L115.5 89.5" stroke="white" stroke-width="5"/>
<path d="M17.2119 8.98633H10.3564V28H7.55859V8.98633H0.717773V6.67188H17.2119V8.98633ZM28.0664 28C27.9102 27.6875 27.7832 27.1309 27.6855 26.3301C26.4258 27.6387 24.9219 28.293 23.1738 28.293C21.6113 28.293 20.3271 27.8535 19.3213 26.9746C18.3252 26.0859 17.8271 24.9629 17.8271 23.6055C17.8271 21.9551 18.4521 20.6758 19.7021 19.7676C20.9619 18.8496 22.7295 18.3906 25.0049 18.3906H27.6416V17.1455C27.6416 16.1982 27.3584 15.4463 26.792 14.8896C26.2256 14.3232 25.3906 14.04 24.2871 14.04C23.3203 14.04 22.5098 14.2842 21.8555 14.7725C21.2012 15.2607 20.874 15.8516 20.874 16.5449H18.1494C18.1494 15.7539 18.4277 14.9922 18.9844 14.2598C19.5508 13.5176 20.3125 12.9316 21.2695 12.502C22.2363 12.0723 23.2959 11.8574 24.4482 11.8574C26.2744 11.8574 27.7051 12.3164 28.7402 13.2344C29.7754 14.1426 30.3125 15.3975 30.3516 16.999V24.2939C30.3516 25.749 30.5371 26.9062 30.9082 27.7656V28H28.0664ZM23.5693 25.9346C24.4189 25.9346 25.2246 25.7148 25.9863 25.2754C26.748 24.8359 27.2998 24.2646 27.6416 23.5615V20.3096H25.5176C22.1973 20.3096 20.5371 21.2812 20.5371 23.2246C20.5371 24.0742 20.8203 24.7383 21.3867 25.2168C21.9531 25.6953 22.6807 25.9346 23.5693 25.9346ZM44.3848 26.4326C43.3301 27.6729 41.7822 28.293 39.7412 28.293C38.0518 28.293 36.7627 27.8047 35.874 26.8281C34.9951 25.8418 34.5508 24.3867 34.541 22.4629V12.1504H37.251V22.3896C37.251 24.792 38.2275 25.9932 40.1807 25.9932C42.251 25.9932 43.6279 25.2217 44.3115 23.6787V12.1504H47.0215V28H44.4434L44.3848 26.4326ZM56.4697 17.9365L59.9854 12.1504H63.1494L57.9639 19.9873L63.3105 28H60.1758L56.5137 22.0674L52.8516 28H49.7021L55.0488 19.9873L49.8633 12.1504H52.998L56.4697 17.9365ZM72.8174 19.9434C72.8174 17.5117 73.3936 15.5586 74.5459 14.084C75.6982 12.5996 77.207 11.8574 79.0723 11.8574C80.9277 11.8574 82.3975 12.4922 83.4814 13.7617V5.5H86.1914V28H83.7012L83.5693 26.3008C82.4854 27.6289 80.9766 28.293 79.043 28.293C77.207 28.293 75.708 27.541 74.5459 26.0371C73.3936 24.5332 72.8174 22.5703 72.8174 20.1484V19.9434ZM75.5273 20.251C75.5273 22.0479 75.8984 23.4541 76.6406 24.4697C77.3828 25.4854 78.4082 25.9932 79.7168 25.9932C81.4355 25.9932 82.6904 25.2217 83.4814 23.6787V16.3984C82.6709 14.9043 81.4258 14.1572 79.7461 14.1572C78.418 14.1572 77.3828 14.6699 76.6406 15.6953C75.8984 16.7207 75.5273 18.2393 75.5273 20.251ZM96.9873 28.293C94.8389 28.293 93.0908 27.5898 91.7432 26.1836C90.3955 24.7676 89.7217 22.8779 89.7217 20.5146V20.0166C89.7217 18.4443 90.0195 17.043 90.6152 15.8125C91.2207 14.5723 92.0605 13.6055 93.1348 12.9121C94.2188 12.209 95.3906 11.8574 96.6504 11.8574C98.7109 11.8574 100.312 12.5361 101.455 13.8936C102.598 15.251 103.169 17.1943 103.169 19.7236V20.8516H92.4316C92.4707 22.4141 92.9248 23.6787 93.7939 24.6455C94.6729 25.6025 95.7861 26.0811 97.1338 26.0811C98.0908 26.0811 98.9014 25.8857 99.5654 25.4951C100.229 25.1045 100.811 24.5869 101.309 23.9424L102.964 25.2314C101.636 27.2725 99.6436 28.293 96.9873 28.293ZM96.6504 14.084C95.5566 14.084 94.6387 14.4844 93.8965 15.2852C93.1543 16.0762 92.6953 17.1895 92.5195 18.625H100.459V18.4199C100.381 17.043 100.01 15.9785 99.3457 15.2266C98.6816 14.4648 97.7832 14.084 96.6504 14.084ZM129.873 21.2324C129.609 23.4883 128.774 25.2314 127.368 26.4619C125.972 27.6826 124.111 28.293 121.787 28.293C119.268 28.293 117.246 27.3896 115.723 25.583C114.209 23.7764 113.452 21.3594 113.452 18.332V16.2812C113.452 14.2988 113.804 12.5557 114.507 11.0518C115.22 9.54785 116.226 8.39551 117.524 7.59473C118.823 6.78418 120.327 6.37891 122.036 6.37891C124.302 6.37891 126.118 7.01367 127.485 8.2832C128.853 9.54297 129.648 11.291 129.873 13.5273H127.046C126.802 11.8281 126.27 10.5977 125.449 9.83594C124.639 9.07422 123.501 8.69336 122.036 8.69336C120.239 8.69336 118.828 9.35742 117.803 10.6855C116.787 12.0137 116.279 13.9033 116.279 16.3545V18.4199C116.279 20.7344 116.763 22.5752 117.729 23.9424C118.696 25.3096 120.049 25.9932 121.787 25.9932C123.35 25.9932 124.546 25.6416 125.376 24.9385C126.216 24.2256 126.772 22.9902 127.046 21.2324H129.873ZM150.132 18.0244C150.132 20.1143 149.78 21.9404 149.077 23.5029C148.374 25.0557 147.378 26.2422 146.089 27.0625C144.8 27.8828 143.296 28.293 141.577 28.293C139.897 28.293 138.408 27.8828 137.109 27.0625C135.811 26.2324 134.8 25.0557 134.077 23.5322C133.364 21.999 132.998 20.2266 132.979 18.2148V16.6768C132.979 14.626 133.335 12.8145 134.048 11.2422C134.761 9.66992 135.767 8.46875 137.065 7.63867C138.374 6.79883 139.868 6.37891 141.548 6.37891C143.257 6.37891 144.761 6.79395 146.06 7.62402C147.368 8.44434 148.374 9.64063 149.077 11.2129C149.78 12.7754 150.132 14.5967 150.132 16.6768V18.0244ZM147.334 16.6475C147.334 14.1182 146.826 12.1797 145.811 10.832C144.795 9.47461 143.374 8.7959 141.548 8.7959C139.771 8.7959 138.369 9.47461 137.344 10.832C136.328 12.1797 135.806 14.0547 135.776 16.457V18.0244C135.776 20.4756 136.289 22.4043 137.314 23.8105C138.35 25.207 139.771 25.9053 141.577 25.9053C143.394 25.9053 144.8 25.2461 145.796 23.9277C146.792 22.5996 147.305 20.7002 147.334 18.2295V16.6475ZM167.622 28H153.647V26.0518L161.03 17.8486C162.124 16.6084 162.876 15.6025 163.286 14.8311C163.706 14.0498 163.916 13.2441 163.916 12.4141C163.916 11.3008 163.579 10.3877 162.905 9.6748C162.231 8.96191 161.333 8.60547 160.21 8.60547C158.862 8.60547 157.812 8.99121 157.061 9.7627C156.318 10.5244 155.947 11.5889 155.947 12.9561H153.237C153.237 10.9932 153.867 9.40625 155.127 8.19531C156.396 6.98437 158.091 6.37891 160.21 6.37891C162.192 6.37891 163.76 6.90137 164.912 7.94629C166.064 8.98145 166.641 10.3633 166.641 12.0918C166.641 14.1914 165.303 16.6914 162.627 19.5918L156.914 25.7881H167.622V28Z" fill="white"/>
<path d="M1652.87 721H1650.04V711.142H1639.29V721H1636.48V699.672H1639.29V708.842H1650.04V699.672H1652.87V721ZM1664.01 721.293C1661.87 721.293 1660.12 720.59 1658.77 719.184C1657.42 717.768 1656.75 715.878 1656.75 713.515V713.017C1656.75 711.444 1657.05 710.043 1657.64 708.812C1658.25 707.572 1659.09 706.605 1660.16 705.912C1661.25 705.209 1662.42 704.857 1663.68 704.857C1665.74 704.857 1667.34 705.536 1668.48 706.894C1669.62 708.251 1670.2 710.194 1670.2 712.724V713.852H1659.46C1659.5 715.414 1659.95 716.679 1660.82 717.646C1661.7 718.603 1662.81 719.081 1664.16 719.081C1665.12 719.081 1665.93 718.886 1666.59 718.495C1667.26 718.104 1667.84 717.587 1668.34 716.942L1669.99 718.231C1668.66 720.272 1666.67 721.293 1664.01 721.293ZM1663.68 707.084C1662.58 707.084 1661.67 707.484 1660.92 708.285C1660.18 709.076 1659.72 710.189 1659.55 711.625H1667.49V711.42C1667.41 710.043 1667.04 708.979 1666.37 708.227C1665.71 707.465 1664.81 707.084 1663.68 707.084ZM1683.13 719.433C1682.08 720.673 1680.53 721.293 1678.49 721.293C1676.8 721.293 1675.51 720.805 1674.62 719.828C1673.74 718.842 1673.3 717.387 1673.29 715.463V705.15H1676V715.39C1676 717.792 1676.97 718.993 1678.93 718.993C1681 718.993 1682.37 718.222 1683.06 716.679V705.15H1685.77V721H1683.19L1683.13 719.433ZM1697.56 707.582C1697.15 707.514 1696.71 707.479 1696.23 707.479C1694.45 707.479 1693.24 708.236 1692.61 709.75V721H1689.9V705.15H1692.54L1692.58 706.981C1693.47 705.565 1694.73 704.857 1696.36 704.857C1696.89 704.857 1697.29 704.926 1697.56 705.062V707.582ZM1706.35 721.293C1704.2 721.293 1702.45 720.59 1701.1 719.184C1699.76 717.768 1699.08 715.878 1699.08 713.515V713.017C1699.08 711.444 1699.38 710.043 1699.98 708.812C1700.58 707.572 1701.42 706.605 1702.5 705.912C1703.58 705.209 1704.75 704.857 1706.01 704.857C1708.07 704.857 1709.67 705.536 1710.82 706.894C1711.96 708.251 1712.53 710.194 1712.53 712.724V713.852H1701.79C1701.83 715.414 1702.29 716.679 1703.16 717.646C1704.03 718.603 1705.15 719.081 1706.5 719.081C1707.45 719.081 1708.26 718.886 1708.93 718.495C1709.59 718.104 1710.17 717.587 1710.67 716.942L1712.33 718.231C1711 720.272 1709 721.293 1706.35 721.293ZM1706.01 707.084C1704.92 707.084 1704 707.484 1703.26 708.285C1702.52 709.076 1702.06 710.189 1701.88 711.625H1709.82V711.42C1709.74 710.043 1709.37 708.979 1708.71 708.227C1708.04 707.465 1707.14 707.084 1706.01 707.084ZM1724.91 716.796C1724.91 716.063 1724.63 715.497 1724.07 715.097C1723.53 714.687 1722.56 714.335 1721.19 714.042C1719.82 713.749 1718.73 713.397 1717.92 712.987C1717.12 712.577 1716.52 712.089 1716.13 711.522C1715.75 710.956 1715.56 710.282 1715.56 709.501C1715.56 708.202 1716.11 707.104 1717.2 706.205C1718.31 705.307 1719.71 704.857 1721.42 704.857C1723.22 704.857 1724.67 705.321 1725.79 706.249C1726.91 707.177 1727.47 708.363 1727.47 709.809H1724.75C1724.75 709.066 1724.43 708.427 1723.79 707.89C1723.17 707.353 1722.38 707.084 1721.42 707.084C1720.44 707.084 1719.66 707.299 1719.11 707.729C1718.55 708.158 1718.27 708.72 1718.27 709.413C1718.27 710.067 1718.53 710.561 1719.05 710.893C1719.57 711.225 1720.5 711.542 1721.85 711.845C1723.2 712.147 1724.3 712.509 1725.14 712.929C1725.98 713.349 1726.6 713.856 1727 714.452C1727.41 715.038 1727.62 715.756 1727.62 716.605C1727.62 718.021 1727.05 719.159 1725.92 720.019C1724.79 720.868 1723.32 721.293 1721.51 721.293C1720.24 721.293 1719.12 721.068 1718.14 720.619C1717.16 720.17 1716.4 719.545 1715.84 718.744C1715.29 717.934 1715.02 717.06 1715.02 716.122H1717.73C1717.78 717.03 1718.14 717.753 1718.81 718.29C1719.5 718.817 1720.4 719.081 1721.51 719.081C1722.54 719.081 1723.36 718.876 1723.97 718.466C1724.6 718.046 1724.91 717.489 1724.91 716.796Z" fill="white"/>
<path d="M84 279L303 140" stroke="#FF6060" stroke-width="3"/>
<path d="M300.5 139.5L639.5 305.5" stroke="#FF6060" stroke-width="3"/>
<path d="M827.5 150.5L639.5 297.5" stroke="#FF6060" stroke-width="3"/>
<path d="M827.5 150.5L1166.5 316.5" stroke="#FF6060" stroke-width="3"/>
<path d="M1666.5 89.5L1166.5 316.5" stroke="#FF6060" stroke-width="3"/>
<path d="M112.483 806.81C115.023 804.77 117.013 803.1 118.453 801.8C119.893 800.48 121.103 799.11 122.083 797.69C123.083 796.25 123.583 794.84 123.583 793.46C123.583 792.16 123.263 791.14 122.623 790.4C122.003 789.64 120.993 789.26 119.593 789.26C118.233 789.26 117.173 789.69 116.413 790.55C115.673 791.39 115.273 792.52 115.213 793.94H112.573C112.653 791.7 113.333 789.97 114.613 788.75C115.893 787.53 117.543 786.92 119.563 786.92C121.623 786.92 123.253 787.49 124.453 788.63C125.673 789.77 126.283 791.34 126.283 793.34C126.283 795 125.783 796.62 124.783 798.2C123.803 799.76 122.683 801.14 121.423 802.34C120.163 803.52 118.553 804.9 116.593 806.48H126.913V808.76H112.483V806.81ZM138.679 792.26C139.919 792.26 141.039 792.53 142.039 793.07C143.039 793.59 143.819 794.38 144.379 795.44C144.959 796.5 145.249 797.79 145.249 799.31V809H142.549V799.7C142.549 798.06 142.139 796.81 141.319 795.95C140.499 795.07 139.379 794.63 137.959 794.63C136.519 794.63 135.369 795.08 134.509 795.98C133.669 796.88 133.249 798.19 133.249 799.91V809H130.519V786.8H133.249V794.9C133.789 794.06 134.529 793.41 135.469 792.95C136.429 792.49 137.499 792.26 138.679 792.26Z" fill="white"/>
<path d="M255.343 804.17V802.1L265.873 787.52H269.143V801.8H272.143V804.17H269.143V809H266.443V804.17H255.343ZM266.563 790.37L258.493 801.8H266.563V790.37ZM283.48 792.26C284.72 792.26 285.84 792.53 286.84 793.07C287.84 793.59 288.62 794.38 289.18 795.44C289.76 796.5 290.05 797.79 290.05 799.31V809H287.35V799.7C287.35 798.06 286.94 796.81 286.12 795.95C285.3 795.07 284.18 794.63 282.76 794.63C281.32 794.63 280.17 795.08 279.31 795.98C278.47 796.88 278.05 798.19 278.05 799.91V809H275.32V786.8H278.05V794.9C278.59 794.06 279.33 793.41 280.27 792.95C281.23 792.49 282.3 792.26 283.48 792.26Z" fill="white"/>
<path d="M398.003 792.47C397.563 790.25 396.193 789.14 393.893 789.14C392.113 789.14 390.783 789.83 389.903 791.21C389.023 792.57 388.593 794.82 388.613 797.96C389.073 796.92 389.833 796.11 390.893 795.53C391.973 794.93 393.173 794.63 394.493 794.63C396.553 794.63 398.193 795.27 399.413 796.55C400.653 797.83 401.273 799.6 401.273 801.86C401.273 803.22 401.003 804.44 400.463 805.52C399.943 806.6 399.143 807.46 398.063 808.1C397.003 808.74 395.713 809.06 394.193 809.06C392.133 809.06 390.523 808.6 389.363 807.68C388.203 806.76 387.393 805.49 386.933 803.87C386.473 802.25 386.243 800.25 386.243 797.87C386.243 790.53 388.803 786.86 393.923 786.86C395.883 786.86 397.423 787.39 398.543 788.45C399.663 789.51 400.323 790.85 400.523 792.47H398.003ZM393.923 796.94C393.063 796.94 392.253 797.12 391.493 797.48C390.733 797.82 390.113 798.35 389.633 799.07C389.173 799.77 388.943 800.63 388.943 801.65C388.943 803.17 389.383 804.41 390.263 805.37C391.143 806.31 392.403 806.78 394.043 806.78C395.443 806.78 396.553 806.35 397.373 805.49C398.213 804.61 398.633 803.43 398.633 801.95C398.633 800.39 398.233 799.17 397.433 798.29C396.633 797.39 395.463 796.94 393.923 796.94ZM413.566 792.26C414.806 792.26 415.926 792.53 416.926 793.07C417.926 793.59 418.706 794.38 419.266 795.44C419.846 796.5 420.136 797.79 420.136 799.31V809H417.436V799.7C417.436 798.06 417.026 796.81 416.206 795.95C415.386 795.07 414.266 794.63 412.846 794.63C411.406 794.63 410.256 795.08 409.396 795.98C408.556 796.88 408.136 798.19 408.136 799.91V809H405.406V786.8H408.136V794.9C408.676 794.06 409.416 793.41 410.356 792.95C411.316 792.49 412.386 792.26 413.566 792.26Z" fill="white"/>
<path d="M519.933 797.72C518.813 797.28 517.953 796.64 517.353 795.8C516.753 794.96 516.453 793.94 516.453 792.74C516.453 791.66 516.723 790.69 517.263 789.83C517.803 788.95 518.603 788.26 519.663 787.76C520.743 787.24 522.043 786.98 523.563 786.98C525.083 786.98 526.373 787.24 527.433 787.76C528.513 788.26 529.323 788.95 529.863 789.83C530.423 790.69 530.703 791.66 530.703 792.74C530.703 793.9 530.393 794.92 529.773 795.8C529.153 796.66 528.303 797.3 527.223 797.72C528.463 798.1 529.443 798.77 530.163 799.73C530.903 800.67 531.273 801.81 531.273 803.15C531.273 804.45 530.953 805.59 530.313 806.57C529.673 807.53 528.763 808.28 527.583 808.82C526.423 809.34 525.083 809.6 523.563 809.6C522.043 809.6 520.703 809.34 519.543 808.82C518.403 808.28 517.513 807.53 516.873 806.57C516.233 805.59 515.913 804.45 515.913 803.15C515.913 801.81 516.273 800.66 516.993 799.7C517.713 798.74 518.693 798.08 519.933 797.72ZM528.063 793.07C528.063 791.85 527.663 790.91 526.863 790.25C526.063 789.59 524.963 789.26 523.563 789.26C522.183 789.26 521.093 789.59 520.293 790.25C519.493 790.91 519.093 791.86 519.093 793.1C519.093 794.22 519.503 795.12 520.323 795.8C521.163 796.48 522.243 796.82 523.563 796.82C524.903 796.82 525.983 796.48 526.803 795.8C527.643 795.1 528.063 794.19 528.063 793.07ZM523.563 798.92C522.083 798.92 520.873 799.27 519.933 799.97C518.993 800.65 518.523 801.68 518.523 803.06C518.523 804.34 518.973 805.37 519.873 806.15C520.793 806.93 522.023 807.32 523.563 807.32C525.103 807.32 526.323 806.93 527.223 806.15C528.123 805.37 528.573 804.34 528.573 803.06C528.573 801.72 528.113 800.7 527.193 800C526.273 799.28 525.063 798.92 523.563 798.92ZM543.509 792.26C544.749 792.26 545.869 792.53 546.869 793.07C547.869 793.59 548.649 794.38 549.209 795.44C549.789 796.5 550.079 797.79 550.079 799.31V809H547.379V799.7C547.379 798.06 546.969 796.81 546.149 795.95C545.329 795.07 544.209 794.63 542.789 794.63C541.349 794.63 540.199 795.08 539.339 795.98C538.499 796.88 538.079 798.19 538.079 799.91V809H535.349V786.8H538.079V794.9C538.619 794.06 539.359 793.41 540.299 792.95C541.259 792.49 542.329 792.26 543.509 792.26Z" fill="white"/>
<path d="M640.498 789.8V787.31H646.138V809H643.378V789.8H640.498ZM650.827 797.93C650.827 794.49 651.387 791.81 652.507 789.89C653.627 787.95 655.587 786.98 658.387 786.98C661.167 786.98 663.117 787.95 664.237 789.89C665.357 791.81 665.917 794.49 665.917 797.93C665.917 801.43 665.357 804.15 664.237 806.09C663.117 808.03 661.167 809 658.387 809C655.587 809 653.627 808.03 652.507 806.09C651.387 804.15 650.827 801.43 650.827 797.93ZM663.217 797.93C663.217 796.19 663.097 794.72 662.857 793.52C662.637 792.3 662.167 791.32 661.447 790.58C660.747 789.84 659.727 789.47 658.387 789.47C657.027 789.47 655.987 789.84 655.267 790.58C654.567 791.32 654.097 792.3 653.857 793.52C653.637 794.72 653.527 796.19 653.527 797.93C653.527 799.73 653.637 801.24 653.857 802.46C654.097 803.68 654.567 804.66 655.267 805.4C655.987 806.14 657.027 806.51 658.387 806.51C659.727 806.51 660.747 806.14 661.447 805.4C662.167 804.66 662.637 803.68 662.857 802.46C663.097 801.24 663.217 799.73 663.217 797.93ZM678.275 792.26C679.515 792.26 680.635 792.53 681.635 793.07C682.635 793.59 683.415 794.38 683.975 795.44C684.555 796.5 684.845 797.79 684.845 799.31V809H682.145V799.7C682.145 798.06 681.735 796.81 680.915 795.95C680.095 795.07 678.975 794.63 677.555 794.63C676.115 794.63 674.965 795.08 674.105 795.98C673.265 796.88 672.845 798.19 672.845 799.91V809H670.115V786.8H672.845V794.9C673.385 794.06 674.125 793.41 675.065 792.95C676.025 792.49 677.095 792.26 678.275 792.26Z" fill="white"/>
<path d="M771.293 789.8V787.31H776.933V809H774.173V789.8H771.293ZM781.292 806.81C783.832 804.77 785.822 803.1 787.262 801.8C788.702 800.48 789.912 799.11 790.892 797.69C791.892 796.25 792.392 794.84 792.392 793.46C792.392 792.16 792.072 791.14 791.432 790.4C790.812 789.64 789.802 789.26 788.402 789.26C787.042 789.26 785.982 789.69 785.222 790.55C784.482 791.39 784.082 792.52 784.022 793.94H781.382C781.462 791.7 782.142 789.97 783.422 788.75C784.702 787.53 786.352 786.92 788.372 786.92C790.432 786.92 792.062 787.49 793.262 788.63C794.482 789.77 795.092 791.34 795.092 793.34C795.092 795 794.592 796.62 793.592 798.2C792.612 799.76 791.492 801.14 790.232 802.34C788.972 803.52 787.362 804.9 785.402 806.48H795.722V808.76H781.292V806.81ZM807.488 792.26C808.728 792.26 809.848 792.53 810.848 793.07C811.848 793.59 812.628 794.38 813.188 795.44C813.768 796.5 814.058 797.79 814.058 799.31V809H811.358V799.7C811.358 798.06 810.948 796.81 810.128 795.95C809.308 795.07 808.188 794.63 806.768 794.63C805.328 794.63 804.178 795.08 803.318 795.98C802.478 796.88 802.058 798.19 802.058 799.91V809H799.328V786.8H802.058V794.9C802.598 794.06 803.338 793.41 804.278 792.95C805.238 792.49 806.308 792.26 807.488 792.26Z" fill="white"/>
<path d="M900.483 789.8V787.31H906.123V809H903.363V789.8H900.483ZM910.152 804.17V802.1L920.682 787.52H923.952V801.8H926.952V804.17H923.952V809H921.252V804.17H910.152ZM921.372 790.37L913.302 801.8H921.372V790.37ZM938.29 792.26C939.53 792.26 940.65 792.53 941.65 793.07C942.65 793.59 943.43 794.38 943.99 795.44C944.57 796.5 944.86 797.79 944.86 799.31V809H942.16V799.7C942.16 798.06 941.75 796.81 940.93 795.95C940.11 795.07 938.99 794.63 937.57 794.63C936.13 794.63 934.98 795.08 934.12 795.98C933.28 796.88 932.86 798.19 932.86 799.91V809H930.13V786.8H932.86V794.9C933.4 794.06 934.14 793.41 935.08 792.95C936.04 792.49 937.11 792.26 938.29 792.26Z" fill="white"/>
<path d="M1017.39 789.8V787.31H1023.03V809H1020.27V789.8H1017.39ZM1039.81 792.47C1039.37 790.25 1038 789.14 1035.7 789.14C1033.92 789.14 1032.59 789.83 1031.71 791.21C1030.83 792.57 1030.4 794.82 1030.42 797.96C1030.88 796.92 1031.64 796.11 1032.7 795.53C1033.78 794.93 1034.98 794.63 1036.3 794.63C1038.36 794.63 1040 795.27 1041.22 796.55C1042.46 797.83 1043.08 799.6 1043.08 801.86C1043.08 803.22 1042.81 804.44 1042.27 805.52C1041.75 806.6 1040.95 807.46 1039.87 808.1C1038.81 808.74 1037.52 809.06 1036 809.06C1033.94 809.06 1032.33 808.6 1031.17 807.68C1030.01 806.76 1029.2 805.49 1028.74 803.87C1028.28 802.25 1028.05 800.25 1028.05 797.87C1028.05 790.53 1030.61 786.86 1035.73 786.86C1037.69 786.86 1039.23 787.39 1040.35 788.45C1041.47 789.51 1042.13 790.85 1042.33 792.47H1039.81ZM1035.73 796.94C1034.87 796.94 1034.06 797.12 1033.3 797.48C1032.54 797.82 1031.92 798.35 1031.44 799.07C1030.98 799.77 1030.75 800.63 1030.75 801.65C1030.75 803.17 1031.19 804.41 1032.07 805.37C1032.95 806.31 1034.21 806.78 1035.85 806.78C1037.25 806.78 1038.36 806.35 1039.18 805.49C1040.02 804.61 1040.44 803.43 1040.44 801.95C1040.44 800.39 1040.04 799.17 1039.24 798.29C1038.44 797.39 1037.27 796.94 1035.73 796.94ZM1055.38 792.26C1056.62 792.26 1057.74 792.53 1058.74 793.07C1059.74 793.59 1060.52 794.38 1061.08 795.44C1061.66 796.5 1061.95 797.79 1061.95 799.31V809H1059.25V799.7C1059.25 798.06 1058.84 796.81 1058.02 795.95C1057.2 795.07 1056.08 794.63 1054.66 794.63C1053.22 794.63 1052.07 795.08 1051.21 795.98C1050.37 796.88 1049.95 798.19 1049.95 799.91V809H1047.22V786.8H1049.95V794.9C1050.49 794.06 1051.23 793.41 1052.17 792.95C1053.13 792.49 1054.2 792.26 1055.38 792.26Z" fill="white"/>
<path d="M1147.45 789.8V787.31H1153.09V809H1150.33V789.8H1147.45ZM1161.74 797.72C1160.62 797.28 1159.76 796.64 1159.16 795.8C1158.56 794.96 1158.26 793.94 1158.26 792.74C1158.26 791.66 1158.53 790.69 1159.07 789.83C1159.61 788.95 1160.41 788.26 1161.47 787.76C1162.55 787.24 1163.85 786.98 1165.37 786.98C1166.89 786.98 1168.18 787.24 1169.24 787.76C1170.32 788.26 1171.13 788.95 1171.67 789.83C1172.23 790.69 1172.51 791.66 1172.51 792.74C1172.51 793.9 1172.2 794.92 1171.58 795.8C1170.96 796.66 1170.11 797.3 1169.03 797.72C1170.27 798.1 1171.25 798.77 1171.97 799.73C1172.71 800.67 1173.08 801.81 1173.08 803.15C1173.08 804.45 1172.76 805.59 1172.12 806.57C1171.48 807.53 1170.57 808.28 1169.39 808.82C1168.23 809.34 1166.89 809.6 1165.37 809.6C1163.85 809.6 1162.51 809.34 1161.35 808.82C1160.21 808.28 1159.32 807.53 1158.68 806.57C1158.04 805.59 1157.72 804.45 1157.72 803.15C1157.72 801.81 1158.08 800.66 1158.8 799.7C1159.52 798.74 1160.5 798.08 1161.74 797.72ZM1169.87 793.07C1169.87 791.85 1169.47 790.91 1168.67 790.25C1167.87 789.59 1166.77 789.26 1165.37 789.26C1163.99 789.26 1162.9 789.59 1162.1 790.25C1161.3 790.91 1160.9 791.86 1160.9 793.1C1160.9 794.22 1161.31 795.12 1162.13 795.8C1162.97 796.48 1164.05 796.82 1165.37 796.82C1166.71 796.82 1167.79 796.48 1168.61 795.8C1169.45 795.1 1169.87 794.19 1169.87 793.07ZM1165.37 798.92C1163.89 798.92 1162.68 799.27 1161.74 799.97C1160.8 800.65 1160.33 801.68 1160.33 803.06C1160.33 804.34 1160.78 805.37 1161.68 806.15C1162.6 806.93 1163.83 807.32 1165.37 807.32C1166.91 807.32 1168.13 806.93 1169.03 806.15C1169.93 805.37 1170.38 804.34 1170.38 803.06C1170.38 801.72 1169.92 800.7 1169 800C1168.08 799.28 1166.87 798.92 1165.37 798.92ZM1185.32 792.26C1186.56 792.26 1187.68 792.53 1188.68 793.07C1189.68 793.59 1190.46 794.38 1191.02 795.44C1191.6 796.5 1191.89 797.79 1191.89 799.31V809H1189.19V799.7C1189.19 798.06 1188.78 796.81 1187.96 795.95C1187.14 795.07 1186.02 794.63 1184.6 794.63C1183.16 794.63 1182.01 795.08 1181.15 795.98C1180.31 796.88 1179.89 798.19 1179.89 799.91V809H1177.16V786.8H1179.89V794.9C1180.43 794.06 1181.17 793.41 1182.11 792.95C1183.07 792.49 1184.14 792.26 1185.32 792.26Z" fill="white"/>
<path d="M1261.06 806.81C1263.6 804.77 1265.59 803.1 1267.03 801.8C1268.47 800.48 1269.68 799.11 1270.66 797.69C1271.66 796.25 1272.16 794.84 1272.16 793.46C1272.16 792.16 1271.84 791.14 1271.2 790.4C1270.58 789.64 1269.57 789.26 1268.17 789.26C1266.81 789.26 1265.75 789.69 1264.99 790.55C1264.25 791.39 1263.85 792.52 1263.79 793.94H1261.15C1261.23 791.7 1261.91 789.97 1263.19 788.75C1264.47 787.53 1266.12 786.92 1268.14 786.92C1270.2 786.92 1271.83 787.49 1273.03 788.63C1274.25 789.77 1274.86 791.34 1274.86 793.34C1274.86 795 1274.36 796.62 1273.36 798.2C1272.38 799.76 1271.26 801.14 1270 802.34C1268.74 803.52 1267.13 804.9 1265.17 806.48H1275.49V808.76H1261.06V806.81ZM1278.65 797.93C1278.65 794.49 1279.21 791.81 1280.33 789.89C1281.45 787.95 1283.41 786.98 1286.21 786.98C1288.99 786.98 1290.94 787.95 1292.06 789.89C1293.18 791.81 1293.74 794.49 1293.74 797.93C1293.74 801.43 1293.18 804.15 1292.06 806.09C1290.94 808.03 1288.99 809 1286.21 809C1283.41 809 1281.45 808.03 1280.33 806.09C1279.21 804.15 1278.65 801.43 1278.65 797.93ZM1291.04 797.93C1291.04 796.19 1290.92 794.72 1290.68 793.52C1290.46 792.3 1289.99 791.32 1289.27 790.58C1288.57 789.84 1287.55 789.47 1286.21 789.47C1284.85 789.47 1283.81 789.84 1283.09 790.58C1282.39 791.32 1281.92 792.3 1281.68 793.52C1281.46 794.72 1281.35 796.19 1281.35 797.93C1281.35 799.73 1281.46 801.24 1281.68 802.46C1281.92 803.68 1282.39 804.66 1283.09 805.4C1283.81 806.14 1284.85 806.51 1286.21 806.51C1287.55 806.51 1288.57 806.14 1289.27 805.4C1289.99 804.66 1290.46 803.68 1290.68 802.46C1290.92 801.24 1291.04 799.73 1291.04 797.93ZM1306.1 792.26C1307.34 792.26 1308.46 792.53 1309.46 793.07C1310.46 793.59 1311.24 794.38 1311.8 795.44C1312.38 796.5 1312.67 797.79 1312.67 799.31V809H1309.97V799.7C1309.97 798.06 1309.56 796.81 1308.74 795.95C1307.92 795.07 1306.8 794.63 1305.38 794.63C1303.94 794.63 1302.79 795.08 1301.93 795.98C1301.09 796.88 1300.67 798.19 1300.67 799.91V809H1297.94V786.8H1300.67V794.9C1301.21 794.06 1301.95 793.41 1302.89 792.95C1303.85 792.49 1304.92 792.26 1306.1 792.26Z" fill="white"/>
<path d="M1391.86 806.81C1394.4 804.77 1396.39 803.1 1397.83 801.8C1399.27 800.48 1400.48 799.11 1401.46 797.69C1402.46 796.25 1402.96 794.84 1402.96 793.46C1402.96 792.16 1402.64 791.14 1402 790.4C1401.38 789.64 1400.37 789.26 1398.97 789.26C1397.61 789.26 1396.55 789.69 1395.79 790.55C1395.05 791.39 1394.65 792.52 1394.59 793.94H1391.95C1392.03 791.7 1392.71 789.97 1393.99 788.75C1395.27 787.53 1396.92 786.92 1398.94 786.92C1401 786.92 1402.63 787.49 1403.83 788.63C1405.05 789.77 1405.66 791.34 1405.66 793.34C1405.66 795 1405.16 796.62 1404.16 798.2C1403.18 799.76 1402.06 801.14 1400.8 802.34C1399.54 803.52 1397.93 804.9 1395.97 806.48H1406.29V808.76H1391.86V806.81ZM1409.11 806.81C1411.65 804.77 1413.64 803.1 1415.08 801.8C1416.52 800.48 1417.73 799.11 1418.71 797.69C1419.71 796.25 1420.21 794.84 1420.21 793.46C1420.21 792.16 1419.89 791.14 1419.25 790.4C1418.63 789.64 1417.62 789.26 1416.22 789.26C1414.86 789.26 1413.8 789.69 1413.04 790.55C1412.3 791.39 1411.9 792.52 1411.84 793.94H1409.2C1409.28 791.7 1409.96 789.97 1411.24 788.75C1412.52 787.53 1414.17 786.92 1416.19 786.92C1418.25 786.92 1419.88 787.49 1421.08 788.63C1422.3 789.77 1422.91 791.34 1422.91 793.34C1422.91 795 1422.41 796.62 1421.41 798.2C1420.43 799.76 1419.31 801.14 1418.05 802.34C1416.79 803.52 1415.18 804.9 1413.22 806.48H1423.54V808.76H1409.11V806.81ZM1435.31 792.26C1436.55 792.26 1437.67 792.53 1438.67 793.07C1439.67 793.59 1440.45 794.38 1441.01 795.44C1441.59 796.5 1441.88 797.79 1441.88 799.31V809H1439.18V799.7C1439.18 798.06 1438.77 796.81 1437.95 795.95C1437.13 795.07 1436.01 794.63 1434.59 794.63C1433.15 794.63 1432 795.08 1431.14 795.98C1430.3 796.88 1429.88 798.19 1429.88 799.91V809H1427.15V786.8H1429.88V794.9C1430.42 794.06 1431.16 793.41 1432.1 792.95C1433.06 792.49 1434.13 792.26 1435.31 792.26Z" fill="white"/>
<path d="M1520.6 797.93C1520.6 794.49 1521.16 791.81 1522.28 789.89C1523.4 787.95 1525.36 786.98 1528.16 786.98C1530.94 786.98 1532.89 787.95 1534.01 789.89C1535.13 791.81 1535.69 794.49 1535.69 797.93C1535.69 801.43 1535.13 804.15 1534.01 806.09C1532.89 808.03 1530.94 809 1528.16 809C1525.36 809 1523.4 808.03 1522.28 806.09C1521.16 804.15 1520.6 801.43 1520.6 797.93ZM1532.99 797.93C1532.99 796.19 1532.87 794.72 1532.63 793.52C1532.41 792.3 1531.94 791.32 1531.22 790.58C1530.52 789.84 1529.5 789.47 1528.16 789.47C1526.8 789.47 1525.76 789.84 1525.04 790.58C1524.34 791.32 1523.87 792.3 1523.63 793.52C1523.41 794.72 1523.3 796.19 1523.3 797.93C1523.3 799.73 1523.41 801.24 1523.63 802.46C1523.87 803.68 1524.34 804.66 1525.04 805.4C1525.76 806.14 1526.8 806.51 1528.16 806.51C1529.5 806.51 1530.52 806.14 1531.22 805.4C1531.94 804.66 1532.41 803.68 1532.63 802.46C1532.87 801.24 1532.99 799.73 1532.99 797.93ZM1539.44 797.93C1539.44 794.49 1540 791.81 1541.12 789.89C1542.24 787.95 1544.2 786.98 1547 786.98C1549.78 786.98 1551.73 787.95 1552.85 789.89C1553.97 791.81 1554.53 794.49 1554.53 797.93C1554.53 801.43 1553.97 804.15 1552.85 806.09C1551.73 808.03 1549.78 809 1547 809C1544.2 809 1542.24 808.03 1541.12 806.09C1540 804.15 1539.44 801.43 1539.44 797.93ZM1551.83 797.93C1551.83 796.19 1551.71 794.72 1551.47 793.52C1551.25 792.3 1550.78 791.32 1550.06 790.58C1549.36 789.84 1548.34 789.47 1547 789.47C1545.64 789.47 1544.6 789.84 1543.88 790.58C1543.18 791.32 1542.71 792.3 1542.47 793.52C1542.25 794.72 1542.14 796.19 1542.14 797.93C1542.14 799.73 1542.25 801.24 1542.47 802.46C1542.71 803.68 1543.18 804.66 1543.88 805.4C1544.6 806.14 1545.64 806.51 1547 806.51C1548.34 806.51 1549.36 806.14 1550.06 805.4C1550.78 804.66 1551.25 803.68 1551.47 802.46C1551.71 801.24 1551.83 799.73 1551.83 797.93ZM1566.88 792.26C1568.12 792.26 1569.24 792.53 1570.24 793.07C1571.24 793.59 1572.02 794.38 1572.58 795.44C1573.16 796.5 1573.45 797.79 1573.45 799.31V809H1570.75V799.7C1570.75 798.06 1570.34 796.81 1569.52 795.95C1568.7 795.07 1567.58 794.63 1566.16 794.63C1564.72 794.63 1563.57 795.08 1562.71 795.98C1561.87 796.88 1561.45 798.19 1561.45 799.91V809H1558.72V786.8H1561.45V794.9C1561.99 794.06 1562.73 793.41 1563.67 792.95C1564.63 792.49 1565.7 792.26 1566.88 792.26Z" fill="white"/>
</svg>
