<svg width="88" height="75" viewBox="0 0 88 75" fill="none" xmlns="http://www.w3.org/2000/svg">
<path d="M44.733 53.514C44.7343 52.7188 44.779 51.9243 44.867 51.134H14.494C12.8218 51.1324 11.2186 50.4675 10.036 49.2853C8.85345 48.1031 8.18812 46.5001 8.186 44.828V2.50195C6.61974 2.64644 5.1638 3.37032 4.10323 4.53189C3.04265 5.69345 2.45382 7.20905 2.452 8.78195V50.564C2.45411 52.2361 3.11925 53.8392 4.30155 55.0217C5.48385 56.2042 7.08683 56.8696 8.759 56.872H44.998C44.8218 55.7613 44.7332 54.6385 44.733 53.514Z" fill="#D4E1F4"/>
<path d="M67.237 8.927V32.15C66.8117 32.1233 66.3823 32.11 65.949 32.11C65.488 32.11 65.032 32.125 64.578 32.156V18.109H2.659V50.449C2.66085 52.1108 3.32182 53.704 4.4969 54.8791C5.67198 56.0542 7.26519 56.7151 8.927 56.717H44.939C45.0489 57.4216 45.1944 58.1201 45.375 58.81C45.425 59 45.475 59.19 45.533 59.376H8.927C6.56022 59.3734 4.29114 58.432 2.61758 56.7584C0.944017 55.0849 0.00264681 52.8158 0 50.449L0 8.927C0.00264681 6.56022 0.944017 4.29114 2.61758 2.61758C4.29114 0.944017 6.56022 0.00264681 8.927 0H58.31C60.6768 0.00264681 62.9459 0.944017 64.6194 2.61758C66.293 4.29114 67.2344 6.56022 67.237 8.927ZM64.578 15.449V8.927C64.5756 7.26545 63.9144 5.67264 62.7395 4.49784C61.5645 3.32304 59.9716 2.66212 58.31 2.66H8.927C7.26528 2.66159 5.67207 3.32234 4.49696 4.49726C3.32186 5.67217 2.66085 7.26528 2.659 8.927V15.449H64.578Z" fill="#0635C9"/>
<path d="M67.237 32.1538C66.8117 32.1271 66.3824 32.1138 65.949 32.1138C65.488 32.1138 65.032 32.1288 64.578 32.1598C61.4466 32.3679 58.3997 33.2652 55.6553 34.7875C52.911 36.3099 50.5367 38.4197 48.7024 40.9662C46.8681 43.5127 45.6189 46.4329 45.0442 49.5182C44.4695 52.6035 44.5835 55.7776 45.378 58.8138C45.428 59.0038 45.478 59.1938 45.536 59.3798C46.6325 63.1173 48.7339 66.482 51.6112 69.1073C54.4885 71.7325 58.0314 73.5175 61.8534 74.2676C65.6755 75.0178 69.6302 74.7042 73.2863 73.3612C76.9425 72.0182 80.1598 69.6973 82.5875 66.6515C85.0152 63.6056 86.5602 59.9517 87.054 56.0882C87.5478 52.2246 86.9715 48.2996 85.3879 44.7411C83.8043 41.1825 81.2742 38.127 78.0734 35.9076C74.8726 33.6882 71.1239 32.3901 67.236 32.1548L67.237 32.1538ZM65.949 72.0008C61.8392 72.0012 57.8449 70.6415 54.5888 68.1338C51.3328 65.6261 48.9982 62.1114 47.949 58.1378C47.919 58.0198 47.888 57.9028 47.859 57.7818C47.1972 55.0465 47.1636 52.1969 47.7609 49.4468C48.3583 46.6967 49.5709 44.1177 51.3078 41.9035C53.0448 39.6893 55.2608 37.8974 57.7895 36.6624C60.3182 35.4273 63.0938 34.7813 65.908 34.7728H65.95C68.4059 34.7548 70.841 35.2229 73.1151 36.1503C75.3892 37.0776 77.4573 38.4458 79.2002 40.176C80.9431 41.9062 82.3265 43.9643 83.2705 46.2315C84.2145 48.4987 84.7005 50.9304 84.7005 53.3863C84.7005 55.8422 84.2145 58.2738 83.2705 60.541C82.3265 62.8083 80.9431 64.8663 79.2002 66.5965C77.4573 68.3267 75.3892 69.6949 73.1151 70.6223C70.841 71.5496 68.4059 72.0178 65.95 71.9998L65.949 72.0008Z" fill="#AC51D6"/>
<path d="M72.698 48.0347L63.089 55.8527L59.374 51.5007C59.1424 51.2419 58.8188 51.0841 58.4723 51.0608C58.1258 51.0374 57.7839 51.1506 57.5198 51.376C57.2556 51.6014 57.09 51.9211 57.0585 52.267C57.027 52.6128 57.1319 52.9572 57.351 53.2267L61.909 58.5667C62.1346 58.8304 62.4544 58.9955 62.8 59.0267C63.1456 59.0579 63.4898 58.9527 63.759 58.7337L74.376 50.0967C74.5133 49.9871 74.6274 49.8513 74.7119 49.6973C74.7964 49.5433 74.8496 49.374 74.8683 49.1993C74.8871 49.0247 74.871 48.848 74.8211 48.6796C74.7711 48.5111 74.6883 48.3543 74.5774 48.218C74.4665 48.0818 74.3298 47.9688 74.175 47.8857C74.0202 47.8026 73.8505 47.751 73.6756 47.7339C73.5008 47.7167 73.3243 47.7344 73.1563 47.7859C72.9884 47.8373 72.8322 47.9216 72.697 48.0337L72.698 48.0347Z" fill="#AC51D6"/>
<path d="M29.774 12.8656H29.785C30.273 12.8663 30.7563 12.7709 31.2075 12.5848C31.6586 12.3988 32.0686 12.1256 32.4142 11.7811C32.7598 11.4365 33.0341 11.0273 33.2215 10.5767C33.4089 10.1262 33.5058 9.64309 33.5065 9.1551C33.5072 8.66711 33.4118 8.18375 33.2257 7.73263C33.0397 7.28151 32.7666 6.87145 32.422 6.52588C32.0774 6.18031 31.6682 5.90598 31.2176 5.71857C30.7671 5.53115 30.284 5.43432 29.796 5.4336H29.785C28.7994 5.43214 27.8537 5.82225 27.1558 6.5181C26.4579 7.21395 26.065 8.15855 26.0635 9.1441C26.062 10.1296 26.4521 11.0754 27.148 11.7733C27.8439 12.4712 28.7884 12.8641 29.774 12.8656ZM29.039 8.4006C29.1369 8.30259 29.2532 8.22492 29.3812 8.17206C29.5092 8.1192 29.6465 8.09219 29.785 8.0926C29.9238 8.0926 30.0612 8.11994 30.1895 8.17306C30.3177 8.22618 30.4343 8.30404 30.5324 8.40219C30.6306 8.50034 30.7084 8.61686 30.7615 8.7451C30.8147 8.87334 30.842 9.01079 30.842 9.1496C30.842 9.2884 30.8147 9.42586 30.7615 9.5541C30.7084 9.68234 30.6306 9.79886 30.5324 9.89701C30.4343 9.99516 30.3177 10.073 30.1895 10.1261C30.0612 10.1793 29.9238 10.2066 29.785 10.2066C29.5761 10.2058 29.3721 10.1432 29.1987 10.0266C29.0254 9.90993 28.8905 9.74454 28.8111 9.5513C28.7317 9.35805 28.7114 9.14561 28.7526 8.9408C28.7939 8.73599 28.895 8.54801 29.043 8.4006H29.039Z" fill="#1AE5BE"/>
<path d="M19.051 12.8319H19.063C20.0485 12.8338 20.9945 12.444 21.6927 11.7485C22.3909 11.0529 22.7841 10.1085 22.786 9.12291C22.7878 8.13736 22.3981 7.19144 21.7025 6.49325C21.007 5.79505 20.0625 5.40176 19.077 5.39991H19.063C18.575 5.39912 18.0916 5.49446 17.6405 5.68047C17.1893 5.86649 16.7792 6.13955 16.4336 6.48406C16.088 6.82856 15.8136 7.23777 15.6262 7.68831C15.4387 8.13885 15.3418 8.62191 15.341 9.10991C15.3402 9.5979 15.4355 10.0813 15.6216 10.5324C15.8076 10.9836 16.0806 11.3937 16.4251 11.7393C16.7697 12.0849 17.1789 12.3593 17.6294 12.5467C18.0799 12.7342 18.563 12.8311 19.051 12.8319ZM18.318 8.36691C18.4158 8.26911 18.532 8.19156 18.6598 8.13871C18.7877 8.08586 18.9247 8.05874 19.063 8.0589C19.2018 8.0593 19.3392 8.08703 19.4673 8.14051C19.5954 8.19399 19.7117 8.27218 19.8095 8.37061C19.9074 8.46904 19.9849 8.58579 20.0377 8.71418C20.0904 8.84257 20.1174 8.9801 20.117 9.11891C20.1157 9.39854 20.0036 9.66626 19.8053 9.86344C19.607 10.0606 19.3386 10.1712 19.059 10.1709C18.85 10.1704 18.6458 10.1078 18.4723 9.99128C18.2989 9.87473 18.1638 9.70935 18.0843 9.51606C18.0048 9.32277 17.9844 9.11025 18.0256 8.90535C18.0668 8.70045 18.1679 8.51238 18.316 8.36491L18.318 8.36691Z" fill="#1AE5BE"/>
<path d="M8.332 12.7998H8.34299C9.0771 12.7999 9.79481 12.5826 10.4056 12.1753C11.0163 11.768 11.4927 11.1889 11.7747 10.5112C12.0567 9.83337 12.1316 9.08724 11.99 8.36692C11.8484 7.6466 11.4966 6.98436 10.979 6.46377C10.6364 6.11532 10.2278 5.83858 9.77714 5.64972C9.32645 5.46086 8.84266 5.36366 8.35399 5.36377H8.34299C7.35745 5.36231 6.41169 5.75242 5.71377 6.44827C5.01586 7.14413 4.62295 8.08873 4.62149 9.07427C4.62004 10.0598 5.01014 11.0056 5.706 11.7035C6.40185 12.4014 7.34645 12.7943 8.332 12.7958V12.7998ZM7.59899 8.33277C7.69674 8.23528 7.81278 8.15805 7.94046 8.10554C8.06814 8.05303 8.20494 8.02626 8.34299 8.02677C8.62333 8.02677 8.89218 8.13814 9.09041 8.33636C9.28863 8.53459 9.39999 8.80344 9.39999 9.08377C9.39999 9.3641 9.28863 9.63296 9.09041 9.83118C8.89218 10.0294 8.62333 10.1408 8.34299 10.1408C8.06282 10.1389 7.79481 10.0261 7.59763 9.82707C7.40046 9.62802 7.29019 9.35895 7.29099 9.07877C7.29022 8.94012 7.31716 8.8027 7.37022 8.67459C7.42328 8.54649 7.5014 8.43027 7.59999 8.33277H7.59899Z" fill="#1AE5BE"/>
</svg>
